# xmcd
#
# Track frame offsets:
# 150
# 14527
# 30937
# 44460
# 56742
# 66055
# 80677
# 92667
# 108262
# 124250
# 136045
# 147792
# 160932
# 174367
# 185785
# 200200
# 212430
# 227980
#
# Disc length: 3197 seconds
#
#
# Revision: 0
# Processed by: cddbd v1.5.1PL2 Copyright (c) Steve Scherf et al.
# Submitted via: FreeRIP 2.931 
#
DISCID=fc0c7b12
DTITLE=Dino Fanco and Mouraí - Volume 3
DYEAR=1900
DGENRE=sertanejo raiz
TTITLE0=Cheiro de relva
TTITLE1=Último a saber
TTITLE2=Minha noiva amada
TTITLE3=Pedaço de poema
TTITLE4=Ternura
TTITLE5=Canto da madrugada
TTITLE6=A volta do caboclo
TTITLE7=Flor brasileira
TTITLE8=Evolução
TTITLE9=Minhas noites
TTITLE10=Eu e você
TTITLE11=As tribos
TTITLE12=Avança matungo, avança
TTITLE13=Dois amantes
TTITLE14=Viagem ao meu passado
TTITLE15=Pioneiro do sertão
TTITLE16=Berrante pantaneiro
TTITLE17=Pescaria no Mogi-guaçu
EXTD=
EXTT0=
EXTT1=
EXTT2=
EXTT3=
EXTT4=
EXTT5=
EXTT6=
EXTT7=
EXTT8=
EXTT9=
EXTT10=
EXTT11=
EXTT12=
EXTT13=
EXTT14=
EXTT15=
EXTT16=
EXTT17=
PLAYORDER=
